<?xml version="1.0" encoding="UTF-8" standalone="no"?>
<svg
   xmlns:dc="http://purl.org/dc/elements/1.1/"
   xmlns:cc="http://creativecommons.org/ns#"
   xmlns:rdf="http://www.w3.org/1999/02/22-rdf-syntax-ns#"
   xmlns:svg="http://www.w3.org/2000/svg"
   xmlns="http://www.w3.org/2000/svg"
   xmlns:sodipodi="http://sodipodi.sourceforge.net/DTD/sodipodi-0.dtd"
   xmlns:inkscape="http://www.inkscape.org/namespaces/inkscape"
   version="1.1"
   x="0px"
   y="0px"
   viewBox="0 0 68.928818 73.099998"
   xml:space="preserve"
   id="svg20"
   sodipodi:docname="details.svg"
   width="68.928818"
   height="73.099998"
   inkscape:version="0.92.3 (2405546, 2018-03-11)"><metadata
     id="metadata26"><rdf:RDF><cc:Work
         rdf:about=""><dc:format>image/svg+xml</dc:format><dc:type
           rdf:resource="http://purl.org/dc/dcmitype/StillImage" /></cc:Work></rdf:RDF></metadata><defs
     id="defs24" /><sodipodi:namedview
     pagecolor="#ffffff"
     bordercolor="#666666"
     borderopacity="1"
     objecttolerance="10"
     gridtolerance="10"
     guidetolerance="10"
     inkscape:pageopacity="0"
     inkscape:pageshadow="2"
     inkscape:window-width="682"
     inkscape:window-height="480"
     id="namedview22"
     showgrid="false"
     inkscape:zoom="1.888"
     inkscape:cx="33.6"
     inkscape:cy="24.2"
     inkscape:window-x="0"
     inkscape:window-y="27"
     inkscape:window-maximized="0"
     inkscape:current-layer="svg20" /><style
     type="text/css"
     id="style2">
	.st0{display:none;}
	.st1{display:inline;}
</style><g
     id="g14"
     transform="translate(-16.4,-13.6)"
     style="fill:#ffffff"><polygon
       points="32.9,29.9 32.9,16.9 19.9,29.9 "
       id="polygon4"
       style="fill:#ffffff" /><rect
       x="74.599998"
       y="62.5"
       transform="matrix(0.7071,-0.7071,0.7071,0.7071,-27.9486,75.5266)"
       width="5.0999999"
       height="18"
       id="rect6"
       style="fill:#ffffff" /><g
       id="g12"
       style="fill:#ffffff"><path
         d="m 54.9,65.6 c -3.3,0 -6.3,-1 -8.9,-2.6 H 25.4 v -2.8 h 17.1 c -2,-2.1 -3.4,-4.8 -4.1,-7.7 h -13 V 49.7 H 38 c 0,-0.3 0,-0.6 0,-1 0,-2.4 0.5,-4.7 1.4,-6.7 h -14 V 39.2 H 41 c 3.1,-4.4 8.1,-7.3 13.9,-7.3 5.9,0 11.1,3.1 14.1,7.7 v -26 H 35.7 V 32.9 H 16.4 V 86.7 H 69 V 58 c -3,4.5 -8.2,7.6 -14.1,7.6 z"
         id="path8"
         inkscape:connector-curvature="0"
         style="fill:#ffffff" /><path
         d="m 44.7,58.4 c 2.6,2.7 6.2,4.4 10.2,4.4 7.8,0 14.1,-6.3 14.1,-14.1 0,-7.8 -6.3,-14.1 -14.1,-14.1 -5.8,0 -10.8,3.6 -13,8.6 h 14.8 v 5.1 H 40.8 c 0,0.1 0,0.2 0,0.3 0,1.6 0.3,3.2 0.8,4.6 v 0 h 15.1 v 5.1 h -12 z"
         id="path10"
         inkscape:connector-curvature="0"
         style="fill:#ffffff" /></g></g></svg>