<?xml version="1.0" encoding="UTF-8" standalone="no"?>
<svg
   xmlns:dc="http://purl.org/dc/elements/1.1/"
   xmlns:cc="http://creativecommons.org/ns#"
   xmlns:rdf="http://www.w3.org/1999/02/22-rdf-syntax-ns#"
   xmlns:svg="http://www.w3.org/2000/svg"
   xmlns="http://www.w3.org/2000/svg"
   xmlns:sodipodi="http://sodipodi.sourceforge.net/DTD/sodipodi-0.dtd"
   xmlns:inkscape="http://www.inkscape.org/namespaces/inkscape"
   version="1.1"
   x="0px"
   y="0px"
   viewBox="0 0 69.013 90.220001"
   enable-background="new 0 0 100 100"
   xml:space="preserve"
   id="svg26"
   sodipodi:docname="noun_User_38101.svg"
   width="69.013"
   height="90.220001"
   inkscape:version="0.92.3 (2405546, 2018-03-11)"><metadata
     id="metadata32"><rdf:RDF><cc:Work
         rdf:about=""><dc:format>image/svg+xml</dc:format><dc:type
           rdf:resource="http://purl.org/dc/dcmitype/StillImage" /></cc:Work></rdf:RDF></metadata><defs
     id="defs30" /><sodipodi:namedview
     pagecolor="#ffffff"
     bordercolor="#666666"
     borderopacity="1"
     objecttolerance="10"
     gridtolerance="10"
     guidetolerance="10"
     inkscape:pageopacity="0"
     inkscape:pageshadow="2"
     inkscape:window-width="682"
     inkscape:window-height="480"
     id="namedview28"
     showgrid="false"
     inkscape:zoom="1.888"
     inkscape:cx="34.796"
     inkscape:cy="32.294"
     inkscape:window-x="0"
     inkscape:window-y="27"
     inkscape:window-maximized="0"
     inkscape:current-layer="svg26" /><circle
     cx="34.485001"
     cy="66.639"
     r="2.7720001"
     id="circle2"
     style="fill:none" /><path
     d="m 33.967,34.855 c 6.665,0 12.15,-7.358 12.861,-16.814 0.089,-0.61 0.137,-1.235 0.146,-1.87 l -2.08,2.389 c 1.147,-2.542 -2.939,-9.007 -2.939,-9.007 -6.884,4.979 -17.124,0 -17.124,0 -3.09,1.219 -1.627,9.908 -1.627,9.908 -0.771,-0.538 -1.479,-0.818 -2.055,-0.962 0.85,9.234 6.265,16.356 12.818,16.356 z"
     id="path4"
     inkscape:connector-curvature="0"
     style="fill:none" /><path
     d="M 60.09,87.462 C 60.065,87.461 60.043,87.447 60.016,87.447 H 8.996 c -0.027,0 -0.049,0.014 -0.075,0.015 -0.729,0.041 -1.311,0.633 -1.311,1.372 0,0.765 0.62,1.386 1.386,1.386 h 51.02 c 0.765,0 1.386,-0.621 1.386,-1.386 0,-0.74 -0.582,-1.331 -1.312,-1.372 z"
     id="path6"
     inkscape:connector-curvature="0"
     style="fill:#000000" /><path
     d="m 46.257,35.465 c -0.076,3.529 -5.309,6.378 -11.752,6.378 -6.444,0 -11.675,-2.849 -11.752,-6.378 -6.92,0.632 -12.774,4.911 -15.659,10.892 H 61.916 C 59.034,40.376 53.179,36.097 46.257,35.465 Z"
     id="path8"
     inkscape:connector-curvature="0"
     style="fill:#000000" /><g
     id="g18"
     transform="translate(-15.204,-4.574)"><circle
       cx="49.688999"
       cy="71.212997"
       r="2.7720001"
       id="circle10"
       style="fill:none" /><g
       id="g16"><circle
         cx="49.688999"
         cy="71.212997"
         r="2.7720001"
         id="circle12"
         style="fill:none" /><path
         d="m 18.372,52.119 c -1.75,0 -3.168,1.419 -3.168,3.17 l 3.168,32.182 c 0,1.751 1.419,3.169 3.169,3.169 H 77.88 c 1.75,0 3.169,-1.418 3.169,-3.169 l 3.168,-32.182 c 0,-1.751 -1.418,-3.17 -3.168,-3.17 m -31.36,21.867 c -1.53,0 -2.772,-1.241 -2.772,-2.772 0,-1.53 1.242,-2.772 2.772,-2.772 1.531,0 2.773,1.242 2.773,2.772 0,1.531 -1.242,2.772 -2.773,2.772 z"
         id="path14"
         inkscape:connector-curvature="0"
         style="fill:#000000" /></g></g><path
     d="m 19.321,17.963 c 0.011,0.14 0.023,0.279 0.035,0.417 0.935,10.572 7.122,18.74 14.61,18.74 7.59,0 13.84,-8.381 14.648,-19.152 0.11,-0.774 0.17,-1.566 0.17,-2.373 0,-0.807 -0.06,-1.599 -0.17,-2.372 C 47.529,5.736 41.384,0 33.966,0 26.549,0 20.404,5.739 19.32,13.229 19.21,14 19.153,14.792 19.153,15.595 c 0,0.328 0.009,0.651 0.029,0.973 0.03,0.471 0.072,0.936 0.139,1.395 z m 5.509,-8.41 c 0,0 10.239,4.979 17.124,0 0,0 4.087,6.465 2.939,9.007 l 2.08,-2.389 c -0.009,0.634 -0.057,1.259 -0.146,1.87 -0.711,9.456 -6.196,16.814 -12.861,16.814 -6.553,0 -11.968,-7.122 -12.819,-16.355 0.577,0.145 1.285,0.425 2.055,0.962 10e-4,-0.001 -1.462,-8.689 1.628,-9.909 z"
     id="path20"
     inkscape:connector-curvature="0"
     style="fill:#000000" /></svg>