<?xml version="1.0" encoding="UTF-8" standalone="no"?>
<svg
   xmlns:dc="http://purl.org/dc/elements/1.1/"
   xmlns:cc="http://creativecommons.org/ns#"
   xmlns:rdf="http://www.w3.org/1999/02/22-rdf-syntax-ns#"
   xmlns:svg="http://www.w3.org/2000/svg"
   xmlns="http://www.w3.org/2000/svg"
   xmlns:sodipodi="http://sodipodi.sourceforge.net/DTD/sodipodi-0.dtd"
   xmlns:inkscape="http://www.inkscape.org/namespaces/inkscape"
   version="1.1"
   x="0px"
   y="0px"
   viewBox="0 0 69.469002 90.000206"
   enable-background="new 0 0 100 100"
   xml:space="preserve"
   id="svg20"
   sodipodi:docname="noun_User_43761.svg"
   width="69.469002"
   height="90.000206"
   inkscape:version="0.92.3 (2405546, 2018-03-11)"><metadata
     id="metadata26"><rdf:RDF><cc:Work
         rdf:about=""><dc:format>image/svg+xml</dc:format><dc:type
           rdf:resource="http://purl.org/dc/dcmitype/StillImage" /></cc:Work></rdf:RDF></metadata><defs
     id="defs24" /><sodipodi:namedview
     pagecolor="#ffffff"
     bordercolor="#666666"
     borderopacity="1"
     objecttolerance="10"
     gridtolerance="10"
     guidetolerance="10"
     inkscape:pageopacity="0"
     inkscape:pageshadow="2"
     inkscape:window-width="682"
     inkscape:window-height="480"
     id="namedview22"
     showgrid="false"
     inkscape:zoom="1.888"
     inkscape:cx="34.734"
     inkscape:cy="32.5"
     inkscape:window-x="0"
     inkscape:window-y="27"
     inkscape:window-maximized="0"
     inkscape:current-layer="svg20" /><g
     id="g14"
     transform="translate(-15.266,-4.9997908)"><circle
       cx="50"
       cy="72.589996"
       r="1.771"
       id="circle2"
       style="fill:none" /><path
       d="m 57.336,38.176 c -0.008,-0.003 -0.016,-0.008 -0.025,-0.012 -1.25,1.232 -2.639,2.208 -4.121,2.795 -1.006,0.399 -2.055,0.62 -3.133,0.62 -1.078,0 -2.128,-0.221 -3.134,-0.62 -1.496,-0.593 -2.896,-1.582 -4.156,-2.829 0,0 0,0 -0.001,0 0,1.536 -1.174,2.412 -1.97,2.829 -0.095,0.05 -0.184,0.093 -0.266,0.13 -0.199,0.09 -0.35,0.144 -0.417,0.166 v 10e-4 c 0.047,0.395 0.222,0.774 0.503,1.133 1.318,1.685 5.02,4.118 9.385,4.118 4.365,0 8.066,-2.433 9.384,-4.118 0.281,-0.359 0.457,-0.739 0.504,-1.133 0.002,-0.012 0.002,-0.023 0.002,-0.035 -0.537,-0.198 -2.524,-1.065 -2.555,-3.045 z"
       id="path4"
       inkscape:connector-curvature="0"
       style="fill:none" /><path
       d="m 61.668,23.596 c -0.041,-0.019 -0.082,-0.032 -0.125,-0.04 l -1.244,1.199 -15.324,-7.888 c -5.01,-0.464 -5.806,6.229 -5.867,6.827 -0.002,0.027 -0.004,0.042 -0.004,0.042 v 10e-4 -10e-4 c -0.178,-0.144 -0.359,-0.21 -0.533,-0.18 -0.076,0.013 -0.147,0.045 -0.214,0.093 -0.483,0.347 -0.678,1.561 -0.432,2.936 0.187,1.044 0.58,1.916 1.01,2.346 0.213,0.213 0.435,0.318 0.646,0.282 0.102,-0.018 0.195,-0.068 0.278,-0.146 1.018,3.167 2.962,6.323 5.415,8.229 1.446,1.124 3.068,1.812 4.784,1.812 1.704,0 3.317,-0.681 4.756,-1.792 2.465,-1.903 4.42,-5.07 5.443,-8.249 0.082,0.078 0.176,0.128 0.277,0.146 0.182,0.031 0.371,-0.042 0.557,-0.199 0.463,-0.393 0.9,-1.312 1.098,-2.429 0.26,-1.457 0.026,-2.733 -0.521,-2.989 z"
       id="path6"
       inkscape:connector-curvature="0"
       style="fill:none" /><path
       d="M 66.672,42.054 C 66.533,42.022 66.391,41.992 66.248,41.964 62.588,38.582 65.086,24.463 65.086,24.463 65.086,2.941 50.528,5.058 50.528,5.058 50.35,5.047 50.174,5.041 50,5.035 c -0.174,0.006 -0.35,0.013 -0.527,0.022 0,0 -14.558,-2.117 -14.558,19.405 0,0 2.498,14.12 -1.162,17.501 -0.143,0.028 -0.285,0.058 -0.424,0.09 -1.186,0.277 -6.613,0.635 -9.679,10.54 H 76.353 C 73.285,42.689 67.857,42.331 66.672,42.054 Z m -6.783,-0.798 c -0.047,0.395 -0.223,0.774 -0.504,1.133 -1.318,1.685 -5.02,4.118 -9.384,4.118 -4.364,0 -8.067,-2.433 -9.385,-4.118 C 40.335,42.03 40.16,41.65 40.113,41.256 v -10e-4 c 0.067,-0.022 0.218,-0.076 0.417,-0.166 0.082,-0.038 0.17,-0.08 0.266,-0.13 0.796,-0.417 1.97,-1.293 1.97,-2.829 0,0 0.001,0 0.001,0 1.26,1.248 2.66,2.236 4.156,2.829 1.006,0.399 2.056,0.62 3.134,0.62 1.078,0 2.127,-0.221 3.133,-0.62 1.482,-0.587 2.871,-1.563 4.121,-2.795 0.01,0.004 0.018,0.008 0.025,0.012 0.031,1.98 2.018,2.848 2.555,3.046 0,0.011 0,0.023 -0.002,0.034 z m 2.299,-14.672 c -0.197,1.117 -0.635,2.036 -1.098,2.429 -0.186,0.157 -0.375,0.23 -0.557,0.199 -0.102,-0.018 -0.195,-0.068 -0.277,-0.146 -1.023,3.179 -2.979,6.346 -5.443,8.249 -1.439,1.111 -3.053,1.792 -4.756,1.792 -1.715,0 -3.338,-0.688 -4.784,-1.812 -2.453,-1.906 -4.397,-5.062 -5.415,-8.229 -0.083,0.078 -0.176,0.128 -0.278,0.146 -0.21,0.037 -0.432,-0.069 -0.646,-0.282 -0.43,-0.43 -0.823,-1.301 -1.01,-2.346 -0.246,-1.375 -0.051,-2.588 0.432,-2.936 0.066,-0.047 0.138,-0.08 0.214,-0.093 0.174,-0.03 0.355,0.037 0.533,0.18 v 0.001 -0.001 c 0,0 10e-4,-0.016 0.004,-0.042 0.061,-0.597 0.857,-7.291 5.867,-6.827 l 15.324,7.888 1.244,-1.199 c 0.043,0.008 0.084,0.021 0.125,0.04 0.548,0.257 0.782,1.533 0.521,2.989 z"
       id="path8"
       inkscape:connector-curvature="0" /><path
       d="M 77.764,92.149 H 22.238 c -0.781,0 -1.415,0.638 -1.415,1.425 0,0.787 0.634,1.426 1.415,1.426 h 55.525 c 0.781,0 1.414,-0.639 1.414,-1.426 -0.001,-0.787 -0.636,-1.425 -1.413,-1.425 z"
       id="path10"
       inkscape:connector-curvature="0"
       style="fill:#000000" /><path
       d="m 25.262,91.307 h 49.477 c 1.84,0 3.332,-1.491 3.332,-3.332 l 6.664,-31.354 c 0,-1.84 -1.492,-3.332 -3.332,-3.332 H 78.489 77.073 76.352 23.649 18.598 c -1.84,0 -3.332,1.491 -3.332,3.332 l 6.663,31.355 c 0,1.839 1.492,3.331 3.333,3.331 z M 50,70.819 c 0.978,0 1.771,0.793 1.771,1.771 0,0.978 -0.793,1.77 -1.771,1.77 -0.978,0 -1.771,-0.792 -1.771,-1.77 0,-0.978 0.793,-1.771 1.771,-1.771 z"
       id="path12"
       inkscape:connector-curvature="0" /></g></svg>